<?xml version="1.0" standalone="no"?>
<!DOCTYPE svg PUBLIC "-//W3C//DTD SVG 20010904//EN"
 "http://www.w3.org/TR/2001/REC-SVG-20010904/DTD/svg10.dtd">
<svg version="1.0" xmlns="http://www.w3.org/2000/svg"
 width="1200.000000pt" height="382.000000pt" viewBox="0 0 1200.000000 382.000000"
 preserveAspectRatio="xMidYMid meet">

<g transform="translate(0.000000,382.000000) scale(0.100000,-0.100000)"
fill="#FFFFFF" stroke="none">
<path d="M1330 3797 c-25 -7 -53 -17 -62 -22 -39 -23 -1227 -1207 -1242 -1239
-23 -49 -21 -159 5 -216 15 -34 166 -191 642 -668 602 -603 624 -623 677 -639
109 -32 245 -5 368 73 36 23 287 265 682 658 717 713 1134 1124 1270 1252 93
87 104 94 208 123 22 6 16 14 -76 103 -84 81 -108 99 -156 114 -49 15 -65 16
-113 6 -30 -6 -71 -23 -89 -37 -19 -14 -96 -94 -171 -178 -75 -84 -227 -243
-337 -355 l-201 -202 -595 594 c-381 381 -609 601 -635 614 -54 27 -121 34
-175 19z m506 -732 c138 -35 275 -109 377 -203 48 -45 57 -68 35 -90 -21 -21
-53 -13 -84 19 -45 47 -163 122 -246 157 -251 104 -560 67 -779 -94 -67 -49
-170 -161 -212 -231 -154 -253 -154 -583 0 -836 20 -33 105 -132 190 -221
l154 -161 -57 -3 -58 -3 -114 113 c-171 170 -236 271 -288 445 -32 109 -42
268 -25 379 74 457 477 785 931 757 47 -3 126 -16 176 -28z m-78 -266 c26 -6
80 -27 121 -46 66 -32 98 -59 306 -262 l233 -226 -31 -33 -31 -32 -206 209
c-113 116 -227 223 -254 240 -115 71 -281 96 -418 62 -65 -16 -88 -7 -88 36 0
18 9 28 35 39 81 34 223 39 333 13z m799 -271 l63 -62 -32 -33 -32 -33 -63 62
c-63 62 -75 92 -51 116 24 24 53 11 115 -50z m-1379 30 c18 -18 15 -40 -17
-99 -86 -160 -85 -362 4 -516 15 -26 118 -139 228 -250 l200 -201 -43 -22 -44
-22 -182 183 c-201 203 -251 272 -290 393 -30 94 -36 225 -14 316 15 66 69
188 94 213 20 20 47 22 64 5z m569 -60 c52 -19 80 -43 263 -224 l205 -203 -32
-33 -33 -32 -202 200 c-193 191 -206 202 -256 214 -154 36 -293 -70 -295 -225
-1 -92 15 -119 165 -271 138 -141 155 -167 123 -194 -28 -24 -62 0 -202 143
-168 172 -188 208 -181 342 5 87 25 138 79 199 87 100 234 133 366 84z m78
-438 l190 -190 -33 -32 -32 -33 -190 190 c-188 188 -207 214 -178 243 29 29
55 10 243 -178z"/>
<path d="M3818 3022 c-40 -18 -281 -248 -858 -818 -918 -906 -1171 -1150
-1224 -1183 -91 -54 -168 -81 -257 -88 l-81 -6 329 -329 c180 -181 364 -359
408 -394 227 -184 497 -230 765 -130 138 51 187 90 450 356 1153 1164 1469
1489 1489 1529 26 51 31 127 12 186 -11 32 -94 121 -425 454 -233 234 -425
419 -443 427 -44 19 -120 17 -165 -4z"/>
<path d="M11063 2699 c-167 -28 -274 -161 -261 -324 14 -164 134 -285 286
-285 60 0 65 -2 130 -52 37 -28 83 -58 102 -66 52 -21 118 -19 175 7 l50 22
-70 34 c-87 42 -164 108 -150 128 77 107 102 179 92 273 -19 181 -172 294
-354 263z m108 -110 c38 -27 71 -111 77 -196 9 -139 -34 -213 -125 -213 -39 0
-51 5 -83 38 -46 46 -70 118 -70 212 0 150 101 230 201 159z"/>
<path d="M5100 2695 c0 -3 7 -20 16 -36 8 -17 94 -229 190 -472 96 -243 185
-461 196 -485 28 -54 110 -132 174 -165 52 -26 192 -72 199 -65 10 10 435
1200 435 1218 0 6 -57 10 -140 10 -77 0 -140 -2 -140 -4 0 -2 14 -33 30 -68
l31 -65 -137 -369 c-75 -203 -140 -372 -143 -376 -4 -4 -79 191 -167 435
l-161 442 -191 3 c-106 1 -192 0 -192 -3z"/>
<path d="M6371 2678 c7 -13 29 -49 51 -80 l38 -57 0 -461 0 -461 -41 -60 c-22
-33 -39 -63 -36 -65 2 -2 83 -3 180 -2 l176 3 -50 64 -49 63 0 324 c0 178 2
324 4 324 2 0 126 -150 275 -332 148 -183 286 -346 305 -361 70 -55 207 -107
280 -107 l26 0 0 552 0 552 45 57 c25 32 45 60 45 63 0 3 -79 6 -175 6 -96 0
-175 -2 -175 -5 0 -2 18 -32 40 -66 l40 -62 0 -309 c0 -169 -2 -308 -4 -308
-3 0 -130 154 -282 343 -152 188 -291 357 -307 375 l-31 32 -183 0 -184 0 12
-22z"/>
<path d="M7722 2663 c15 -15 32 -41 37 -56 7 -19 11 -195 11 -512 0 -317 -4
-493 -11 -512 -5 -15 -22 -40 -37 -55 l-26 -28 242 0 241 0 -29 48 c-16 26
-34 71 -40 101 -10 54 -15 853 -5 863 10 10 87 -10 114 -29 49 -36 71 -97 71
-198 -1 -125 -30 -185 -120 -245 -51 -34 -47 -35 60 -31 165 7 309 84 368 195
24 45 27 62 27 152 0 92 -2 105 -30 159 -35 69 -99 123 -179 151 -45 16 -92
19 -386 22 l-335 3 27 -28z"/>
<path d="M8874 2659 c35 -41 41 -70 26 -127 -15 -63 -304 -880 -325 -923 -10
-19 -33 -51 -53 -71 l-36 -38 188 0 188 0 -31 35 c-40 47 -40 73 7 210 l37
110 184 0 184 0 34 -100 c19 -55 34 -120 34 -145 1 -39 -4 -49 -35 -77 l-36
-33 275 0 c151 0 275 2 275 4 0 3 -16 22 -36 43 -19 21 -47 60 -61 88 -14 27
-108 268 -208 535 -101 267 -186 493 -190 503 -7 15 -27 17 -227 17 l-220 0
26 -31z m246 -453 c33 -92 60 -169 60 -172 0 -2 -56 -4 -124 -4 l-125 0 55
163 c66 197 63 191 69 185 3 -2 32 -80 65 -172z"/>
<path d="M9588 2642 c26 -26 132 -174 235 -328 l189 -280 -4 -220 c-3 -228 -5
-242 -51 -291 l-20 -23 247 0 248 0 -26 34 c-43 58 -56 130 -56 326 l0 177
225 321 c124 177 225 324 225 327 0 3 -92 5 -204 5 l-204 0 29 -29 c55 -55 39
-109 -89 -290 l-81 -113 -30 48 c-17 27 -77 123 -134 214 l-104 165 -221 3
-221 2 47 -48z"/>
<path d="M11466 2655 c11 -26 14 -86 14 -260 0 -174 -3 -234 -14 -260 l-15
-35 116 0 116 0 -19 21 c-16 17 -20 39 -22 123 -3 118 -1 118 72 -24 25 -47
54 -94 64 -103 20 -19 55 -23 155 -19 l58 2 -34 43 c-38 47 -147 227 -147 243
0 5 14 18 31 28 70 41 86 153 31 218 -43 51 -74 58 -256 58 l-165 0 15 -35z
m252 -81 c46 -51 14 -149 -55 -169 -23 -6 -23 -5 -23 93 0 54 3 102 7 105 11
12 47 -3 71 -29z"/>
</g>
</svg>

